<svg xmlns="http://www.w3.org/2000/svg" width="84.625" height="88.672" viewBox="0 0 84.625 88.672">
  <g id="编组_7" data-name="编组 7" transform="translate(1.786 2)">
    <path id="Stroke_17" data-name="Stroke 17" d="M27.856,0H0S2.879,50.4,21.471,69" transform="translate(12.67 0)" fill="none" stroke="#fff" stroke-linejoin="round" stroke-miterlimit="10" stroke-width="4"/>
    <path id="Stroke_19" data-name="Stroke 19" d="M10.563,13.78s4.456-1.919,2.52-8.643A6.841,6.841,0,0,0,6.187,0S0-.03,0,7.274c0,9.282,15.039,19.513,20.464,25.24,0,0,4.292,4.881-.956,8.465" transform="translate(0 15.245)" fill="none" stroke="#fff" stroke-linecap="round" stroke-miterlimit="10" stroke-width="3.572"/>
    <path id="Stroke_21" data-name="Stroke 21" d="M0,0H27.856S24.977,50.4,6.385,69" transform="translate(40.527 0)" fill="none" stroke="#fff" stroke-linejoin="round" stroke-miterlimit="10" stroke-width="4"/>
    <path id="Stroke_23" data-name="Stroke 23" d="M11.554,13.78S7.1,11.861,9.034,5.137A6.841,6.841,0,0,1,15.93,0s6.187-.03,6.187,7.274c0,9.282-15.039,19.513-20.464,25.24,0,0-4.292,4.881.956,8.465" transform="translate(58.936 15.245)" fill="none" stroke="#fff" stroke-linecap="round" stroke-miterlimit="10" stroke-width="3.572"/>
    <path id="Stroke_25" data-name="Stroke 25" d="M32.819,15.673H4a4,4,0,0,1-4-4V4A4,4,0,0,1,4,0H32.819a4,4,0,0,1,4,4v7.673A4,4,0,0,1,32.819,15.673Z" transform="translate(22.117 68.999)" fill="none" stroke="#fff" stroke-linejoin="round" stroke-miterlimit="10" stroke-width="4"/>
    <path id="Stroke_27" data-name="Stroke 27" d="M0,.5H53.956" transform="translate(13.808 6.554)" fill="none" stroke="#fff" stroke-linecap="round" stroke-miterlimit="10" stroke-width="4" stroke-dasharray="0 8"/>
    <path id="Stroke_29" data-name="Stroke 29" d="M0,.5H35.28" transform="translate(23.656 76.335)" fill="none" stroke="#fff" stroke-linecap="round" stroke-miterlimit="10" stroke-width="4" stroke-dasharray="0 8"/>
  </g>
</svg>
