<svg xmlns="http://www.w3.org/2000/svg" width="70.739" height="88.517" viewBox="0 0 70.739 88.517">
  <g id="编组_8" data-name="编组 8" transform="translate(2 2)">
    <path id="Stroke_11" data-name="Stroke 11" d="M66.739,33.369c0,2.766-5.223,4.81-5.9,7.361-.706,2.64,2.775,7.017,1.438,9.328-1.357,2.345-6.9,1.509-8.8,3.411s-1.066,7.446-3.411,8.8c-2.311,1.337-6.688-2.144-9.327-1.439-2.552.682-4.595,5.9-7.361,5.9s-4.81-5.223-7.361-5.9c-2.64-.706-7.017,2.775-9.329,1.438-2.344-1.356-1.508-6.9-3.411-8.8s-7.446-1.067-8.8-3.412C3.13,47.746,6.611,43.37,5.905,40.73,5.223,38.179,0,36.135,0,33.369s5.223-4.81,5.905-7.361c.706-2.64-2.775-7.017-1.438-9.328,1.357-2.345,6.9-1.509,8.8-3.411s1.067-7.446,3.411-8.8c2.311-1.337,6.688,2.144,9.328,1.439C28.56,5.223,30.6,0,33.37,0s4.809,5.223,7.361,5.905c2.64.706,7.016-2.775,9.328-1.438,2.344,1.356,1.508,6.9,3.411,8.8s7.446,1.067,8.8,3.412c1.337,2.311-2.144,6.687-1.438,9.327C61.516,28.559,66.739,30.6,66.739,33.369Z" fill="none" stroke="#fff" stroke-miterlimit="10" stroke-width="4"/>
    <path id="Stroke_13" data-name="Stroke 13" d="M38.918,19.459A19.459,19.459,0,1,1,19.459,0,19.459,19.459,0,0,1,38.918,19.459Z" transform="translate(13.911 13.91)" fill="none" stroke="#fff" stroke-linecap="round" stroke-miterlimit="10" stroke-width="4" stroke-dasharray="0 8"/>
    <path id="Stroke_15" data-name="Stroke 15" d="M26.335,0V18.751c0,2.675-2.221,4.438-4.149,3.3l-5.932-3.519a6.053,6.053,0,0,0-6.173,0L4.148,22.046C2.221,23.189,0,21.426,0,18.751V0" transform="translate(20.028 62.271)" fill="none" stroke="#fff" stroke-miterlimit="10" stroke-width="3.572"/>
  </g>
</svg>
