<svg xmlns="http://www.w3.org/2000/svg" width="87.838" height="91.8" viewBox="0 0 87.838 91.8">
  <g id="编组_6" data-name="编组 6" transform="translate(2 2.002)">
    <path id="Stroke_31" data-name="Stroke 31" d="M79.838,16.407H4a4,4,0,0,1-4-4V4A4,4,0,0,1,4,0H79.838a4,4,0,0,1,4,4v8.407A4,4,0,0,1,79.838,16.407Z" transform="translate(0 13.125)" fill="none" stroke="#fff" stroke-linejoin="round" stroke-miterlimit="10" stroke-width="4"/>
    <path id="Stroke_33" data-name="Stroke 33" d="M69.02,58.246H4a4,4,0,0,1-4-4V4A4,4,0,0,1,4,0H69.02a4,4,0,0,1,4,4V54.246A4,4,0,0,1,69.02,58.246Z" transform="translate(5.409 29.532)" fill="none" stroke="#fff" stroke-linejoin="round" stroke-miterlimit="10" stroke-width="4.038"/>
    <path id="Stroke_35" data-name="Stroke 35" d="M.5,0V16.407" transform="translate(35.922 13.125)" fill="none" stroke="#fff" stroke-linejoin="round" stroke-miterlimit="10" stroke-width="4"/>
    <path id="Stroke_37" data-name="Stroke 37" d="M.5,0V16.407" transform="translate(46.973 13.125)" fill="none" stroke="#fff" stroke-linejoin="round" stroke-miterlimit="10" stroke-width="4"/>
    <path id="Stroke_39" data-name="Stroke 39" d="M21.259,35.683c11.933-8.114,20.523-14.409,21.222-23.362S33.668.71,33.668.71c-6.575-2.938-12.409,4.2-12.409,4.2S15.425-2.228,8.85.71c0,0-9.513,2.658-8.813,11.611S9.326,27.569,21.259,35.683Z" transform="translate(20.857 41.315)" fill="none" stroke="#fff" stroke-linecap="round" stroke-miterlimit="10" stroke-width="4" stroke-dasharray="0 8"/>
    <path id="Stroke_41" data-name="Stroke 41" d="M19.855,13.125S12.636-.992,5.627.055c-6.18.924-7.834,7.813-2.1,13.07" transform="translate(22.261)" fill="none" stroke="#fff" stroke-linejoin="round" stroke-miterlimit="10" stroke-width="4"/>
    <path id="Stroke_43" data-name="Stroke 43" d="M0,0S.116,7.123,5.723,9.429" transform="translate(12.575 3.697)" fill="none" stroke="#fff" stroke-linecap="round" stroke-linejoin="round" stroke-miterlimit="10" stroke-width="4"/>
    <path id="Stroke_45" data-name="Stroke 45" d="M0,13.125S7.219-.992,14.228.055c6.18.924,7.834,7.813,2.1,13.07" transform="translate(41.363)" fill="none" stroke="#fff" stroke-linejoin="round" stroke-miterlimit="10" stroke-width="4"/>
    <path id="Stroke_47" data-name="Stroke 47" d="M5.723,0S5.607,7.123,0,9.429" transform="translate(65.181 3.697)" fill="none" stroke="#fff" stroke-linecap="round" stroke-linejoin="round" stroke-miterlimit="10" stroke-width="4"/>
    <path id="Stroke_49" data-name="Stroke 49" d="M21.259,4.907S15.425-2.228,8.85.71c0,0-9.513,2.658-8.813,11.611S9.326,27.57,21.259,35.684" transform="translate(20.857 41.314)" fill="none" stroke="#fff" stroke-linecap="round" stroke-miterlimit="10" stroke-width="4" stroke-dasharray="0 8"/>
  </g>
</svg>
