<svg xmlns="http://www.w3.org/2000/svg" width="52.935" height="91.147" viewBox="0 0 52.935 91.147">
  <g id="编组_9" data-name="编组 9" transform="translate(2 2)">
    <path id="Stroke_1" data-name="Stroke 1" d="M47.862,23.373,37.852,36.881a3.546,3.546,0,0,1-2.82,1.553H13.9a3.546,3.546,0,0,1-2.82-1.553L1.073,23.373A5.834,5.834,0,0,1,0,19.926V5C0,2.239,1.743,0,3.893,0H45.042c2.15,0,3.893,2.239,3.893,5V19.926A5.834,5.834,0,0,1,47.862,23.373Z" transform="translate(0)" fill="none" stroke="#fff" stroke-miterlimit="10" stroke-width="4"/>
    <path id="Stroke_3" data-name="Stroke 3" d="M23.06,1.382l3.624,11.152a2,2,0,0,0,1.9,1.382H40.312a2,2,0,0,1,1.176,3.618L32,24.427a2,2,0,0,0-.727,2.236L34.9,37.816a2,2,0,0,1-3.078,2.236l-9.487-6.893a2,2,0,0,0-2.351,0L10.5,40.052a2,2,0,0,1-3.077-2.236l3.623-11.153a2,2,0,0,0-.726-2.236L.828,17.534A2,2,0,0,1,2,13.916H13.73a2,2,0,0,0,1.9-1.382L19.256,1.382A2,2,0,0,1,23.06,1.382Z" transform="translate(3.31 46.623)" fill="none" stroke="#fff" stroke-miterlimit="10" stroke-width="4"/>
    <path id="Stroke_5" data-name="Stroke 5" d="M.5,0V38.434" transform="translate(18.803 0.001)" fill="none" stroke="#fff" stroke-linecap="round" stroke-miterlimit="10" stroke-width="4" stroke-dasharray="0 8"/>
    <path id="Stroke_7" data-name="Stroke 7" d="M.5,0V38.434" transform="translate(29.131 0.001)" fill="none" stroke="#fff" stroke-linecap="round" stroke-miterlimit="10" stroke-width="4" stroke-dasharray="0 8"/>
    <path id="Stroke_9" data-name="Stroke 9" d="M16.377,0A8.188,8.188,0,0,1,8.188,8.188,8.188,8.188,0,0,1,0,0" transform="translate(16.279 38.434)" fill="none" stroke="#fff" stroke-miterlimit="10" stroke-width="4"/>
  </g>
</svg>
